<svg width="1024" height="1024" viewBox="0 0 1024 1024" fill="none" xmlns="http://www.w3.org/2000/svg">
<g clip-path="url(#clip0_446_80)">
<path d="M709.905 96H287C252.206 96 224 124.206 224 159V801C224 835.794 252.206 864 287 864H801C835.794 864 864 835.794 864 801V250.095C864 233.387 857.363 217.363 845.548 205.548L754.452 114.452C742.638 102.637 726.613 96 709.905 96Z" fill="#3CADE3"/>
<g filter="url(#filter0_d_446_80)">
<path d="M672 160H223C188.206 160 160 188.206 160 223V865C160 899.794 188.206 928 223 928H737C771.794 928 800 899.794 800 865V288L672 160Z" fill="#5CCFFF"/>
</g>
<path d="M493 704V800.615L534.808 758.807L553.192 777.192L480 850.385L406.808 777.192L425.192 758.807L467 800.615V704H493ZM334.076 707.457C343.525 693.89 365 700.522 365 717.211V832H339V746.935L302.145 802.219C295.416 812.312 280.584 812.312 273.855 802.219L237 746.935V832H211V717.211C211 700.522 232.475 693.89 241.924 707.457L242.145 707.781L288 776.564L333.855 707.781L334.076 707.457Z" fill="#339EE1"/>
<path d="M672 160V225C672 259.794 700.206 288 735 288H799.5" stroke="#339EE1" stroke-width="17"/>
<path d="M160 864H545C579.794 864 608 835.794 608 801V735C608 700.206 579.794 672 545 672H160" stroke="#339EE1" stroke-width="20"/>
<circle cx="480.282" cy="295.253" r="81.7529" stroke="#339EE1" stroke-width="29"/>
<path d="M288.027 584.263C288.027 584.263 284.72 478.141 351.944 455.675C399.479 439.789 561.072 439.826 608.619 455.675C675.86 478.089 672.788 584.012 672.788 584.012" stroke="#339EE1" stroke-width="29"/>
<path d="M408.637 537.488C401.938 537.488 397.621 534.422 397.289 529.227L397.27 528.914H402.836L402.875 529.129C403.246 531.316 405.57 532.684 408.793 532.684C412.055 532.684 414.105 531.258 414.105 529.109V529.09C414.105 527.176 412.719 526.219 409.223 525.496L406.254 524.91C400.688 523.797 397.875 521.141 397.875 516.902V516.883C397.875 511.727 402.367 508.328 408.617 508.328C415.141 508.328 419.145 511.59 419.418 516.531L419.438 516.902H413.871L413.852 516.668C413.559 514.461 411.527 513.113 408.617 513.113C405.59 513.133 403.773 514.52 403.773 516.531V516.551C403.773 518.328 405.219 519.363 408.461 520.008L411.449 520.613C417.348 521.785 420.004 524.188 420.004 528.621V528.641C420.004 534.051 415.746 537.488 408.637 537.488ZM435.049 537.43C430.401 537.43 428.213 535.633 428.213 531.141V520.359H425.303V516.062H428.213V510.945H433.975V516.062H437.803V520.359H433.975V530.516C433.975 532.469 434.854 533.133 436.573 533.133C437.08 533.133 437.452 533.074 437.803 533.035V537.215C437.159 537.312 436.241 537.43 435.049 537.43ZM453.766 537.43C447.36 537.43 443.473 533.27 443.473 526.57V526.551C443.473 519.891 447.399 515.633 453.532 515.633C459.665 515.633 463.513 519.793 463.513 526.121V527.879H449.098C449.157 531.219 450.973 533.172 453.884 533.172C456.227 533.172 457.653 531.883 458.063 530.711L458.102 530.594H463.337L463.278 530.809C462.634 533.895 459.743 537.43 453.766 537.43ZM453.63 519.891C451.286 519.891 449.528 521.453 449.157 524.285H458.044C457.692 521.395 455.993 519.891 453.63 519.891ZM470.062 543.836V516.062H475.765V519.715H475.902C477.034 517.176 479.32 515.633 482.288 515.633C487.601 515.633 490.843 519.695 490.843 526.512V526.531C490.843 533.328 487.601 537.43 482.366 537.43C479.378 537.43 477.015 535.906 475.882 533.426H475.765V543.836H470.062ZM480.413 532.703C483.245 532.703 485.042 530.34 485.042 526.531V526.512C485.042 522.684 483.245 520.359 480.413 520.359C477.64 520.359 475.745 522.742 475.745 526.531V526.551C475.745 530.32 477.64 532.703 480.413 532.703ZM497.548 537V508.816H503.252V519.676H503.369C504.443 517.078 506.65 515.633 509.795 515.633C514.326 515.633 517.138 518.797 517.138 523.855V537H511.435V525.027C511.435 522.098 509.99 520.359 507.392 520.359C504.873 520.359 503.252 522.273 503.252 525.008V537H497.548ZM533.941 537.43C527.535 537.43 523.648 533.27 523.648 526.57V526.551C523.648 519.891 527.574 515.633 533.707 515.633C539.84 515.633 543.688 519.793 543.688 526.121V527.879H529.273C529.332 531.219 531.148 533.172 534.059 533.172C536.402 533.172 537.828 531.883 538.238 530.711L538.277 530.594H543.512L543.453 530.809C542.809 533.895 539.918 537.43 533.941 537.43ZM533.805 519.891C531.461 519.891 529.703 521.453 529.332 524.285H538.219C537.867 521.395 536.168 519.891 533.805 519.891ZM550.237 537V516.062H555.94V519.5H556.057C557.131 517.098 559.28 515.633 562.444 515.633C567.053 515.633 569.67 518.582 569.67 523.484V537H563.967V524.656C563.967 521.922 562.678 520.359 560.12 520.359C557.561 520.359 555.94 522.234 555.94 524.969V537H550.237Z" fill="#339EE1"/>
</g>
<defs>
<filter id="filter0_d_446_80" x="60" y="64" width="840" height="968" filterUnits="userSpaceOnUse" color-interpolation-filters="sRGB">
<feFlood flood-opacity="0" result="BackgroundImageFix"/>
<feColorMatrix in="SourceAlpha" type="matrix" values="0 0 0 0 0 0 0 0 0 0 0 0 0 0 0 0 0 0 127 0" result="hardAlpha"/>
<feOffset dy="4"/>
<feGaussianBlur stdDeviation="50"/>
<feComposite in2="hardAlpha" operator="out"/>
<feColorMatrix type="matrix" values="0 0 0 0 0 0 0 0 0 0 0 0 0 0 0 0 0 0 0.25 0"/>
<feBlend mode="normal" in2="BackgroundImageFix" result="effect1_dropShadow_446_80"/>
<feBlend mode="normal" in="SourceGraphic" in2="effect1_dropShadow_446_80" result="shape"/>
</filter>
<clipPath id="clip0_446_80">
<rect width="1024" height="1024" fill="white"/>
</clipPath>
</defs>
</svg>
