<svg width="1020" height="876" viewBox="0 0 1020 876" fill="none" xmlns="http://www.w3.org/2000/svg">
<path d="M43 430.5L176 316.44M985 430.5L828 294.131M176 316.44L476.381 58.835C499.716 38.8231 534.191 38.9317 557.399 59.0902L810.5 278.931M176 316.44V770.5C176 804.742 203.758 832.5 238 832.5H389.5M828 294.131V770.5C828 804.742 800.242 832.5 766 832.5H608.75M828 294.131L810.5 278.931M389.5 832.5V578C389.5 543.758 417.258 516 451.5 516H546.147C580.331 516 608.066 543.669 608.147 577.853L608.75 832.5M389.5 832.5H608.75M810.5 278.931V108.5" stroke="#008FFF" stroke-width="86" stroke-linecap="round"/>
</svg>
