<svg width="1024" height="1024" viewBox="0 0 1024 1024" fill="none" xmlns="http://www.w3.org/2000/svg">
<g clip-path="url(#clip0_456_71)">
<path d="M709.905 96H287C252.206 96 224 124.206 224 159V801C224 835.794 252.206 864 287 864H801C835.794 864 864 835.794 864 801V250.095C864 233.387 857.363 217.363 845.548 205.548L754.452 114.452C742.638 102.637 726.613 96 709.905 96Z" fill="#3CADE3"/>
<g filter="url(#filter0_d_456_71)">
<path d="M672 160H223C188.206 160 160 188.206 160 223V865C160 899.794 188.206 928 223 928H737C771.794 928 800 899.794 800 865V288L672 160Z" fill="#5CCFFF"/>
</g>
<path d="M493 704V800.615L534.808 758.808L553.192 777.192L480 850.385L406.808 777.192L425.192 758.808L467 800.615V704H493ZM334.076 707.457C343.525 693.89 365 700.523 365 717.211V832H339V746.936L302.145 802.219C295.416 812.312 280.584 812.312 273.855 802.219L237 746.936V832H211V717.211C211 700.523 232.475 693.89 241.924 707.457L242.145 707.781L288 776.564L333.855 707.781L334.076 707.457Z" fill="#339EE1"/>
<path d="M672 160V225C672 259.794 700.206 288 735 288H799.5" stroke="#339EE1" stroke-width="17"/>
<path d="M160 864H545C579.794 864 608 835.794 608 801V735C608 700.206 579.794 672 545 672H160" stroke="#339EE1" stroke-width="20"/>
<path d="M325 284V548C325 581.137 351.863 608 385 608H521C554.137 608 581 581.137 581 548V288.25L517 224H385C351.863 224 325 250.863 325 284Z" fill="#5CCFFF" stroke="#339EE1" stroke-width="20"/>
<path d="M517 227V269C517 279.493 525.507 288 536 288H574" stroke="#339EE1" stroke-width="20" stroke-linecap="square"/>
<path d="M495.5 366L527.5 414L495.5 462" stroke="#339EE1" stroke-width="25" stroke-linecap="round"/>
<path d="M410.5 366L378.5 414L410.5 462" stroke="#339EE1" stroke-width="25" stroke-linecap="round"/>
<path d="M469 352L437 483" stroke="#339EE1" stroke-width="25" stroke-linecap="round"/>
</g>
<defs>
<filter id="filter0_d_456_71" x="60" y="64" width="840" height="968" filterUnits="userSpaceOnUse" color-interpolation-filters="sRGB">
<feFlood flood-opacity="0" result="BackgroundImageFix"/>
<feColorMatrix in="SourceAlpha" type="matrix" values="0 0 0 0 0 0 0 0 0 0 0 0 0 0 0 0 0 0 127 0" result="hardAlpha"/>
<feOffset dy="4"/>
<feGaussianBlur stdDeviation="50"/>
<feComposite in2="hardAlpha" operator="out"/>
<feColorMatrix type="matrix" values="0 0 0 0 0 0 0 0 0 0 0 0 0 0 0 0 0 0 0.25 0"/>
<feBlend mode="normal" in2="BackgroundImageFix" result="effect1_dropShadow_456_71"/>
<feBlend mode="normal" in="SourceGraphic" in2="effect1_dropShadow_456_71" result="shape"/>
</filter>
<clipPath id="clip0_456_71">
<rect width="1024" height="1024" fill="white"/>
</clipPath>
</defs>
</svg>
