<svg width="996" height="840" viewBox="0 0 996 840" fill="none" xmlns="http://www.w3.org/2000/svg">
<path d="M239.475 28H60C26.8629 28 0 54.8629 0 88V348H896V172C896 127.817 860.183 92 816 92H400.525C389.658 92 378.94 89.4698 369.22 84.6099L270.78 35.3901C261.06 30.5302 250.342 28 239.475 28Z" fill="#3AABE3"/>
<g filter="url(#filter0_d_445_40)">
<path d="M833 156H63C28.2061 156 0 184.206 0 219V733C0 767.794 28.2061 796 63 796H833C867.794 796 896 767.794 896 733V219C896 184.206 867.794 156 833 156Z" fill="#5FD0FF"/>
</g>
<g filter="url(#filter1_d_445_40)">
<path d="M896 732H0V716H896V732Z" fill="#5DC9F8"/>
</g>
<g filter="url(#filter2_d_445_40)">
<path d="M896 700H0V684H896V700Z" fill="#5DC9F8"/>
</g>
<defs>
<filter id="filter0_d_445_40" x="-100" y="0" width="1096" height="840" filterUnits="userSpaceOnUse" color-interpolation-filters="sRGB">
<feFlood flood-opacity="0" result="BackgroundImageFix"/>
<feColorMatrix in="SourceAlpha" type="matrix" values="0 0 0 0 0 0 0 0 0 0 0 0 0 0 0 0 0 0 127 0" result="hardAlpha"/>
<feOffset dy="-56"/>
<feGaussianBlur stdDeviation="50"/>
<feComposite in2="hardAlpha" operator="out"/>
<feColorMatrix type="matrix" values="0 0 0 0 0 0 0 0 0 0 0 0 0 0 0 0 0 0 0.25 0"/>
<feBlend mode="normal" in2="BackgroundImageFix" result="effect1_dropShadow_445_40"/>
<feBlend mode="normal" in="SourceGraphic" in2="effect1_dropShadow_445_40" result="shape"/>
</filter>
<filter id="filter1_d_445_40" x="-37" y="683" width="970" height="90" filterUnits="userSpaceOnUse" color-interpolation-filters="sRGB">
<feFlood flood-opacity="0" result="BackgroundImageFix"/>
<feColorMatrix in="SourceAlpha" type="matrix" values="0 0 0 0 0 0 0 0 0 0 0 0 0 0 0 0 0 0 127 0" result="hardAlpha"/>
<feOffset dy="4"/>
<feGaussianBlur stdDeviation="18.5"/>
<feComposite in2="hardAlpha" operator="out"/>
<feColorMatrix type="matrix" values="0 0 0 0 0 0 0 0 0 0 0 0 0 0 0 0 0 0 0.25 0"/>
<feBlend mode="normal" in2="BackgroundImageFix" result="effect1_dropShadow_445_40"/>
<feBlend mode="normal" in="SourceGraphic" in2="effect1_dropShadow_445_40" result="shape"/>
</filter>
<filter id="filter2_d_445_40" x="-37" y="651" width="970" height="90" filterUnits="userSpaceOnUse" color-interpolation-filters="sRGB">
<feFlood flood-opacity="0" result="BackgroundImageFix"/>
<feColorMatrix in="SourceAlpha" type="matrix" values="0 0 0 0 0 0 0 0 0 0 0 0 0 0 0 0 0 0 127 0" result="hardAlpha"/>
<feOffset dy="4"/>
<feGaussianBlur stdDeviation="18.5"/>
<feComposite in2="hardAlpha" operator="out"/>
<feColorMatrix type="matrix" values="0 0 0 0 0 0 0 0 0 0 0 0 0 0 0 0 0 0 0.25 0"/>
<feBlend mode="normal" in2="BackgroundImageFix" result="effect1_dropShadow_445_40"/>
<feBlend mode="normal" in="SourceGraphic" in2="effect1_dropShadow_445_40" result="shape"/>
</filter>
</defs>
</svg>
