<svg width="1024" height="1024" viewBox="0 0 1024 1024" fill="none" xmlns="http://www.w3.org/2000/svg">
<g clip-path="url(#clip0_514_2)">
<path d="M303.975 131H124.5C91.3629 131 64.5 157.863 64.5 191V451H960.5V275C960.5 230.817 924.683 195 880.5 195H465.025C454.158 195 443.44 192.47 433.72 187.61L335.28 138.39C325.56 133.53 314.842 131 303.975 131Z" fill="#3AABE3"/>
<g filter="url(#filter0_d_514_2)">
<path d="M897.5 252H127.5C92.7061 252 64.5 280.206 64.5 315V829C64.5 863.794 92.7061 892 127.5 892H897.5C932.294 892 960.5 863.794 960.5 829V315C960.5 280.206 932.294 252 897.5 252Z" fill="#5FD0FF"/>
</g>
<g filter="url(#filter1_d_514_2)">
<path d="M960.5 828H64.5V812H960.5V828Z" fill="#5DC9F8"/>
</g>
<g filter="url(#filter2_d_514_2)">
<path d="M961 811.5V828.5H64V811.5H961ZM65 827.5H960V812.5H65V827.5Z" fill="#45B9EC"/>
</g>
<g filter="url(#filter3_d_514_2)">
<path d="M960.5 796H64.5V780H960.5V796Z" fill="#5DC9F8"/>
</g>
<g filter="url(#filter4_d_514_2)">
<path d="M961 779.5V796.5H64V779.5H961ZM65 795.5H960V780.5H65V795.5Z" fill="#45B9EC"/>
</g>
</g>
<defs>
<filter id="filter0_d_514_2" x="-35.5" y="96" width="1096" height="840" filterUnits="userSpaceOnUse" color-interpolation-filters="sRGB">
<feFlood flood-opacity="0" result="BackgroundImageFix"/>
<feColorMatrix in="SourceAlpha" type="matrix" values="0 0 0 0 0 0 0 0 0 0 0 0 0 0 0 0 0 0 127 0" result="hardAlpha"/>
<feOffset dy="-56"/>
<feGaussianBlur stdDeviation="50"/>
<feComposite in2="hardAlpha" operator="out"/>
<feColorMatrix type="matrix" values="0 0 0 0 0 0 0 0 0 0 0 0 0 0 0 0 0 0 0.25 0"/>
<feBlend mode="normal" in2="BackgroundImageFix" result="effect1_dropShadow_514_2"/>
<feBlend mode="normal" in="SourceGraphic" in2="effect1_dropShadow_514_2" result="shape"/>
</filter>
<filter id="filter1_d_514_2" x="27.5" y="779" width="970" height="90" filterUnits="userSpaceOnUse" color-interpolation-filters="sRGB">
<feFlood flood-opacity="0" result="BackgroundImageFix"/>
<feColorMatrix in="SourceAlpha" type="matrix" values="0 0 0 0 0 0 0 0 0 0 0 0 0 0 0 0 0 0 127 0" result="hardAlpha"/>
<feOffset dy="4"/>
<feGaussianBlur stdDeviation="18.5"/>
<feComposite in2="hardAlpha" operator="out"/>
<feColorMatrix type="matrix" values="0 0 0 0 0 0 0 0 0 0 0 0 0 0 0 0 0 0 0.25 0"/>
<feBlend mode="normal" in2="BackgroundImageFix" result="effect1_dropShadow_514_2"/>
<feBlend mode="normal" in="SourceGraphic" in2="effect1_dropShadow_514_2" result="shape"/>
</filter>
<filter id="filter2_d_514_2" x="27" y="778.5" width="971" height="91" filterUnits="userSpaceOnUse" color-interpolation-filters="sRGB">
<feFlood flood-opacity="0" result="BackgroundImageFix"/>
<feColorMatrix in="SourceAlpha" type="matrix" values="0 0 0 0 0 0 0 0 0 0 0 0 0 0 0 0 0 0 127 0" result="hardAlpha"/>
<feOffset dy="4"/>
<feGaussianBlur stdDeviation="18.5"/>
<feComposite in2="hardAlpha" operator="out"/>
<feColorMatrix type="matrix" values="0 0 0 0 0 0 0 0 0 0 0 0 0 0 0 0 0 0 0.25 0"/>
<feBlend mode="normal" in2="BackgroundImageFix" result="effect1_dropShadow_514_2"/>
<feBlend mode="normal" in="SourceGraphic" in2="effect1_dropShadow_514_2" result="shape"/>
</filter>
<filter id="filter3_d_514_2" x="27.5" y="747" width="970" height="90" filterUnits="userSpaceOnUse" color-interpolation-filters="sRGB">
<feFlood flood-opacity="0" result="BackgroundImageFix"/>
<feColorMatrix in="SourceAlpha" type="matrix" values="0 0 0 0 0 0 0 0 0 0 0 0 0 0 0 0 0 0 127 0" result="hardAlpha"/>
<feOffset dy="4"/>
<feGaussianBlur stdDeviation="18.5"/>
<feComposite in2="hardAlpha" operator="out"/>
<feColorMatrix type="matrix" values="0 0 0 0 0 0 0 0 0 0 0 0 0 0 0 0 0 0 0.25 0"/>
<feBlend mode="normal" in2="BackgroundImageFix" result="effect1_dropShadow_514_2"/>
<feBlend mode="normal" in="SourceGraphic" in2="effect1_dropShadow_514_2" result="shape"/>
</filter>
<filter id="filter4_d_514_2" x="27" y="746.5" width="971" height="91" filterUnits="userSpaceOnUse" color-interpolation-filters="sRGB">
<feFlood flood-opacity="0" result="BackgroundImageFix"/>
<feColorMatrix in="SourceAlpha" type="matrix" values="0 0 0 0 0 0 0 0 0 0 0 0 0 0 0 0 0 0 127 0" result="hardAlpha"/>
<feOffset dy="4"/>
<feGaussianBlur stdDeviation="18.5"/>
<feComposite in2="hardAlpha" operator="out"/>
<feColorMatrix type="matrix" values="0 0 0 0 0 0 0 0 0 0 0 0 0 0 0 0 0 0 0.25 0"/>
<feBlend mode="normal" in2="BackgroundImageFix" result="effect1_dropShadow_514_2"/>
<feBlend mode="normal" in="SourceGraphic" in2="effect1_dropShadow_514_2" result="shape"/>
</filter>
<clipPath id="clip0_514_2">
<rect width="1024" height="1024" fill="white"/>
</clipPath>
</defs>
</svg>
