<svg width="1024" height="1024" viewBox="0 0 1024 1024" fill="none" xmlns="http://www.w3.org/2000/svg">
<g clip-path="url(#clip0_469_37)">
<path d="M709.905 96H287C252.206 96 224 124.206 224 159V801C224 835.794 252.206 864 287 864H801C835.794 864 864 835.794 864 801V250.095C864 233.387 857.363 217.363 845.548 205.548L754.452 114.452C742.638 102.637 726.613 96 709.905 96Z" fill="#3CADE3"/>
<g filter="url(#filter0_d_469_37)">
<path d="M672 160H223C188.206 160 160 188.206 160 223V865C160 899.794 188.206 928 223 928H737C771.794 928 800 899.794 800 865V288L672 160Z" fill="#5CCFFF"/>
</g>
<path d="M493 704V800.615L534.808 758.808L553.192 777.192L480 850.385L406.808 777.192L425.192 758.808L467 800.615V704H493ZM334.076 707.457C343.525 693.89 365 700.523 365 717.211V832H339V746.936L302.145 802.219C295.416 812.312 280.584 812.312 273.855 802.219L237 746.936V832H211V717.211C211 700.523 232.475 693.89 241.924 707.457L242.145 707.781L288 776.564L333.855 707.781L334.076 707.457Z" fill="#339EE1"/>
<path d="M663.5 225V160H680.5V225C680.5 255.1 704.9 279.5 735 279.5H799.5V296.5H735C695.512 296.5 663.5 264.488 663.5 225Z" fill="#339EE1"/>
<path d="M598 801V735C598 705.729 574.271 682 545 682H160V662H545C585.317 662 618 694.683 618 735V801C618 841.317 585.317 874 545 874H160V854H545C574.271 854 598 830.271 598 801Z" fill="#339EE1"/>
<path d="M640 566C645.523 566 650 570.477 650 576C650 581.523 645.523 586 640 586H256C250.477 586 246 581.523 246 576C246 570.477 250.477 566 256 566H640ZM640 501.5C645.523 501.5 650 505.977 650 511.5C650 517.023 645.523 521.5 640 521.5H256C250.477 521.5 246 517.023 246 511.5C246 505.977 250.477 501.5 256 501.5H640ZM640 438C645.523 438 650 442.477 650 448C650 453.523 645.523 458 640 458H320C314.477 458 310 453.523 310 448C310 442.477 314.477 438 320 438H640ZM640 374C645.523 374 650 378.477 650 384C650 389.523 645.523 394 640 394H256C250.477 394 246 389.523 246 384C246 378.477 250.477 374 256 374H640ZM640 310C645.523 310 650 314.477 650 320C650 325.523 645.523 330 640 330H256C250.477 330 246 325.523 246 320C246 314.477 250.477 310 256 310H640ZM640 246C645.523 246 650 250.477 650 256C650 261.523 645.523 266 640 266H192C186.477 266 182 261.523 182 256C182 250.477 186.477 246 192 246H640Z" fill="#339EE1"/>
</g>
<defs>
<filter id="filter0_d_469_37" x="60" y="64" width="840" height="968" filterUnits="userSpaceOnUse" color-interpolation-filters="sRGB">
<feFlood flood-opacity="0" result="BackgroundImageFix"/>
<feColorMatrix in="SourceAlpha" type="matrix" values="0 0 0 0 0 0 0 0 0 0 0 0 0 0 0 0 0 0 127 0" result="hardAlpha"/>
<feOffset dy="4"/>
<feGaussianBlur stdDeviation="50"/>
<feComposite in2="hardAlpha" operator="out"/>
<feColorMatrix type="matrix" values="0 0 0 0 0 0 0 0 0 0 0 0 0 0 0 0 0 0 0.25 0"/>
<feBlend mode="normal" in2="BackgroundImageFix" result="effect1_dropShadow_469_37"/>
<feBlend mode="normal" in="SourceGraphic" in2="effect1_dropShadow_469_37" result="shape"/>
</filter>
<clipPath id="clip0_469_37">
<rect width="1024" height="1024" fill="white"/>
</clipPath>
</defs>
</svg>
