<svg width="1024" height="840" viewBox="0 0 1024 840" fill="none" xmlns="http://www.w3.org/2000/svg">
<path d="M303.975 35H124.5C91.3629 35 64.5 61.8629 64.5 95V355H960.5V179C960.5 134.817 924.683 99 880.5 99H465.025C454.158 99 443.44 96.4698 433.72 91.6099L335.28 42.3901C325.56 37.5302 314.842 35 303.975 35Z" fill="#3AABE3"/>
<g filter="url(#filter0_d_484_37)">
<path d="M897.5 156H127.5C92.7061 156 64.5 184.206 64.5 219V733C64.5 767.794 92.7061 796 127.5 796H897.5C932.294 796 960.5 767.794 960.5 733V219C960.5 184.206 932.294 156 897.5 156Z" fill="#5FD0FF"/>
</g>
<g filter="url(#filter1_d_484_37)">
<path d="M960.5 732H64.5V716H960.5V732Z" fill="#5DC9F8"/>
</g>
<g filter="url(#filter2_d_484_37)">
<path d="M961 715.5V732.5H64V715.5H961ZM65 731.5H960V716.5H65V731.5Z" fill="#45B9EC"/>
</g>
<g filter="url(#filter3_d_484_37)">
<path d="M960.5 700H64.5V684H960.5V700Z" fill="#5DC9F8"/>
</g>
<g filter="url(#filter4_d_484_37)">
<path d="M961 683.5V700.5H64V683.5H961ZM65 699.5H960V684.5H65V699.5Z" fill="#45B9EC"/>
</g>
<path d="M331 539V292C331 259.967 356.967 234 389 234H636C668.033 234 694 259.967 694 292V539C694 571.033 668.033 597 636 597H389C356.967 597 331 571.033 331 539Z" stroke="#359FE1" stroke-width="31"/>
<rect x="391.5" y="506.25" width="242" height="60.5" rx="30.25" fill="#359FE1"/>
<path d="M331 294.5H694" stroke="#359FE1" stroke-width="31"/>
<defs>
<filter id="filter0_d_484_37" x="-35.5" y="0" width="1096" height="840" filterUnits="userSpaceOnUse" color-interpolation-filters="sRGB">
<feFlood flood-opacity="0" result="BackgroundImageFix"/>
<feColorMatrix in="SourceAlpha" type="matrix" values="0 0 0 0 0 0 0 0 0 0 0 0 0 0 0 0 0 0 127 0" result="hardAlpha"/>
<feOffset dy="-56"/>
<feGaussianBlur stdDeviation="50"/>
<feComposite in2="hardAlpha" operator="out"/>
<feColorMatrix type="matrix" values="0 0 0 0 0 0 0 0 0 0 0 0 0 0 0 0 0 0 0.25 0"/>
<feBlend mode="normal" in2="BackgroundImageFix" result="effect1_dropShadow_484_37"/>
<feBlend mode="normal" in="SourceGraphic" in2="effect1_dropShadow_484_37" result="shape"/>
</filter>
<filter id="filter1_d_484_37" x="27.5" y="683" width="970" height="90" filterUnits="userSpaceOnUse" color-interpolation-filters="sRGB">
<feFlood flood-opacity="0" result="BackgroundImageFix"/>
<feColorMatrix in="SourceAlpha" type="matrix" values="0 0 0 0 0 0 0 0 0 0 0 0 0 0 0 0 0 0 127 0" result="hardAlpha"/>
<feOffset dy="4"/>
<feGaussianBlur stdDeviation="18.5"/>
<feComposite in2="hardAlpha" operator="out"/>
<feColorMatrix type="matrix" values="0 0 0 0 0 0 0 0 0 0 0 0 0 0 0 0 0 0 0.25 0"/>
<feBlend mode="normal" in2="BackgroundImageFix" result="effect1_dropShadow_484_37"/>
<feBlend mode="normal" in="SourceGraphic" in2="effect1_dropShadow_484_37" result="shape"/>
</filter>
<filter id="filter2_d_484_37" x="27" y="682.5" width="971" height="91" filterUnits="userSpaceOnUse" color-interpolation-filters="sRGB">
<feFlood flood-opacity="0" result="BackgroundImageFix"/>
<feColorMatrix in="SourceAlpha" type="matrix" values="0 0 0 0 0 0 0 0 0 0 0 0 0 0 0 0 0 0 127 0" result="hardAlpha"/>
<feOffset dy="4"/>
<feGaussianBlur stdDeviation="18.5"/>
<feComposite in2="hardAlpha" operator="out"/>
<feColorMatrix type="matrix" values="0 0 0 0 0 0 0 0 0 0 0 0 0 0 0 0 0 0 0.25 0"/>
<feBlend mode="normal" in2="BackgroundImageFix" result="effect1_dropShadow_484_37"/>
<feBlend mode="normal" in="SourceGraphic" in2="effect1_dropShadow_484_37" result="shape"/>
</filter>
<filter id="filter3_d_484_37" x="27.5" y="651" width="970" height="90" filterUnits="userSpaceOnUse" color-interpolation-filters="sRGB">
<feFlood flood-opacity="0" result="BackgroundImageFix"/>
<feColorMatrix in="SourceAlpha" type="matrix" values="0 0 0 0 0 0 0 0 0 0 0 0 0 0 0 0 0 0 127 0" result="hardAlpha"/>
<feOffset dy="4"/>
<feGaussianBlur stdDeviation="18.5"/>
<feComposite in2="hardAlpha" operator="out"/>
<feColorMatrix type="matrix" values="0 0 0 0 0 0 0 0 0 0 0 0 0 0 0 0 0 0 0.25 0"/>
<feBlend mode="normal" in2="BackgroundImageFix" result="effect1_dropShadow_484_37"/>
<feBlend mode="normal" in="SourceGraphic" in2="effect1_dropShadow_484_37" result="shape"/>
</filter>
<filter id="filter4_d_484_37" x="27" y="650.5" width="971" height="91" filterUnits="userSpaceOnUse" color-interpolation-filters="sRGB">
<feFlood flood-opacity="0" result="BackgroundImageFix"/>
<feColorMatrix in="SourceAlpha" type="matrix" values="0 0 0 0 0 0 0 0 0 0 0 0 0 0 0 0 0 0 127 0" result="hardAlpha"/>
<feOffset dy="4"/>
<feGaussianBlur stdDeviation="18.5"/>
<feComposite in2="hardAlpha" operator="out"/>
<feColorMatrix type="matrix" values="0 0 0 0 0 0 0 0 0 0 0 0 0 0 0 0 0 0 0.25 0"/>
<feBlend mode="normal" in2="BackgroundImageFix" result="effect1_dropShadow_484_37"/>
<feBlend mode="normal" in="SourceGraphic" in2="effect1_dropShadow_484_37" result="shape"/>
</filter>
</defs>
</svg>
